<svg xmlns="http://www.w3.org/2000/svg" viewBox="0 0 1200 675" width="1200" height="675"><defs><linearGradient id="bg" x1="0" y1="0" x2="0" y2="1"><stop offset="0" stop-color="#3a2a7a"/><stop offset="1" stop-color="#140d33"/></linearGradient><radialGradient id="shine" cx="0.35" cy="0.3" r="0.6"><stop offset="0" stop-color="#fff" stop-opacity=".85"/><stop offset=".4" stop-color="#fff" stop-opacity=".15"/><stop offset="1" stop-color="#fff" stop-opacity="0"/></radialGradient><filter id="sh" x="-30%" y="-30%" width="160%" height="160%"><feDropShadow dx="0" dy="8" stdDeviation="8" flood-color="#000" flood-opacity=".25"/></filter><radialGradient id="torch" cx="0.5" cy="0.5" r="0.5"><stop offset="0" stop-color="#ffd23f"/><stop offset="1" stop-color="rgba(255,200,61,0)"/></radialGradient></defs><rect width="1200" height="675" fill="url(#bg)"/><rect y="470" width="1200" height="205" fill="#241a52"/><rect x="-67.00000000000001" y="473" width="94" height="44" rx="6" fill="#2f2366"/><rect x="32.999999999999986" y="473" width="94" height="44" rx="6" fill="#2f2366"/><rect x="133" y="473" width="94" height="44" rx="6" fill="#2f2366"/><rect x="233" y="473" width="94" height="44" rx="6" fill="#2f2366"/><rect x="333" y="473" width="94" height="44" rx="6" fill="#2f2366"/><rect x="433" y="473" width="94" height="44" rx="6" fill="#2f2366"/><rect x="533" y="473" width="94" height="44" rx="6" fill="#2f2366"/><rect x="633" y="473" width="94" height="44" rx="6" fill="#2f2366"/><rect x="733" y="473" width="94" height="44" rx="6" fill="#2f2366"/><rect x="833" y="473" width="94" height="44" rx="6" fill="#2f2366"/><rect x="933" y="473" width="94" height="44" rx="6" fill="#2f2366"/><rect x="1033" y="473" width="94" height="44" rx="6" fill="#2f2366"/><rect x="1133" y="473" width="94" height="44" rx="6" fill="#2f2366"/><rect x="-17.000000000000018" y="523" width="94" height="44" rx="6" fill="#2f2366"/><rect x="82.99999999999999" y="523" width="94" height="44" rx="6" fill="#2f2366"/><rect x="183" y="523" width="94" height="44" rx="6" fill="#2f2366"/><rect x="283" y="523" width="94" height="44" rx="6" fill="#2f2366"/><rect x="383" y="523" width="94" height="44" rx="6" fill="#2f2366"/><rect x="483" y="523" width="94" height="44" rx="6" fill="#2f2366"/><rect x="583" y="523" width="94" height="44" rx="6" fill="#2f2366"/><rect x="683" y="523" width="94" height="44" rx="6" fill="#2f2366"/><rect x="783" y="523" width="94" height="44" rx="6" fill="#2f2366"/><rect x="883" y="523" width="94" height="44" rx="6" fill="#2f2366"/><rect x="983" y="523" width="94" height="44" rx="6" fill="#2f2366"/><rect x="1083" y="523" width="94" height="44" rx="6" fill="#2f2366"/><rect x="1183" y="523" width="94" height="44" rx="6" fill="#2f2366"/><rect x="-67.00000000000001" y="573" width="94" height="44" rx="6" fill="#2f2366"/><rect x="32.999999999999986" y="573" width="94" height="44" rx="6" fill="#2f2366"/><rect x="133" y="573" width="94" height="44" rx="6" fill="#2f2366"/><rect x="233" y="573" width="94" height="44" rx="6" fill="#2f2366"/><rect x="333" y="573" width="94" height="44" rx="6" fill="#2f2366"/><rect x="433" y="573" width="94" height="44" rx="6" fill="#2f2366"/><rect x="533" y="573" width="94" height="44" rx="6" fill="#2f2366"/><rect x="633" y="573" width="94" height="44" rx="6" fill="#2f2366"/><rect x="733" y="573" width="94" height="44" rx="6" fill="#2f2366"/><rect x="833" y="573" width="94" height="44" rx="6" fill="#2f2366"/><rect x="933" y="573" width="94" height="44" rx="6" fill="#2f2366"/><rect x="1033" y="573" width="94" height="44" rx="6" fill="#2f2366"/><rect x="1133" y="573" width="94" height="44" rx="6" fill="#2f2366"/><rect x="-17.000000000000018" y="623" width="94" height="44" rx="6" fill="#2f2366"/><rect x="82.99999999999999" y="623" width="94" height="44" rx="6" fill="#2f2366"/><rect x="183" y="623" width="94" height="44" rx="6" fill="#2f2366"/><rect x="283" y="623" width="94" height="44" rx="6" fill="#2f2366"/><rect x="383" y="623" width="94" height="44" rx="6" fill="#2f2366"/><rect x="483" y="623" width="94" height="44" rx="6" fill="#2f2366"/><rect x="583" y="623" width="94" height="44" rx="6" fill="#2f2366"/><rect x="683" y="623" width="94" height="44" rx="6" fill="#2f2366"/><rect x="783" y="623" width="94" height="44" rx="6" fill="#2f2366"/><rect x="883" y="623" width="94" height="44" rx="6" fill="#2f2366"/><rect x="983" y="623" width="94" height="44" rx="6" fill="#2f2366"/><rect x="1083" y="623" width="94" height="44" rx="6" fill="#2f2366"/><rect x="1183" y="623" width="94" height="44" rx="6" fill="#2f2366"/><rect x="-67.00000000000001" y="673" width="94" height="44" rx="6" fill="#2f2366"/><rect x="32.999999999999986" y="673" width="94" height="44" rx="6" fill="#2f2366"/><rect x="133" y="673" width="94" height="44" rx="6" fill="#2f2366"/><rect x="233" y="673" width="94" height="44" rx="6" fill="#2f2366"/><rect x="333" y="673" width="94" height="44" rx="6" fill="#2f2366"/><rect x="433" y="673" width="94" height="44" rx="6" fill="#2f2366"/><rect x="533" y="673" width="94" height="44" rx="6" fill="#2f2366"/><rect x="633" y="673" width="94" height="44" rx="6" fill="#2f2366"/><rect x="733" y="673" width="94" height="44" rx="6" fill="#2f2366"/><rect x="833" y="673" width="94" height="44" rx="6" fill="#2f2366"/><rect x="933" y="673" width="94" height="44" rx="6" fill="#2f2366"/><rect x="1033" y="673" width="94" height="44" rx="6" fill="#2f2366"/><rect x="1133" y="673" width="94" height="44" rx="6" fill="#2f2366"/><circle cx="150" cy="180" r="90" fill="url(#torch)" opacity=".6"/><rect x="144" y="180" width="12" height="40" fill="#7a4b2a"/><path d="M150 150 Q168 174 150 184 Q132 174 150 150Z" fill="#ffd23f"/><circle cx="1050" cy="180" r="90" fill="url(#torch)" opacity=".6"/><rect x="1044" y="180" width="12" height="40" fill="#7a4b2a"/><path d="M1050 150 Q1068 174 1050 184 Q1032 174 1050 150Z" fill="#ffd23f"/><g transform="translate(260 360) rotate(-15)" filter="url(#sh)"><rect x="-65" y="-65" width="130" height="130" rx="26" fill="#ffc83d"/><rect x="-65" y="-65" width="130" height="65" rx="26" fill="#fff" opacity=".35"/><circle cx="-33.800000000000004" cy="-33.800000000000004" r="11.7" fill="#2a1b4a"/><circle cx="33.800000000000004" cy="-33.800000000000004" r="11.7" fill="#2a1b4a"/><circle cx="-33.800000000000004" cy="0" r="11.7" fill="#2a1b4a"/><circle cx="33.800000000000004" cy="0" r="11.7" fill="#2a1b4a"/><circle cx="-33.800000000000004" cy="33.800000000000004" r="11.7" fill="#2a1b4a"/><circle cx="33.800000000000004" cy="33.800000000000004" r="11.7" fill="#2a1b4a"/></g><g transform="translate(940 340) rotate(18)" filter="url(#sh)"><rect x="-55" y="-55" width="110" height="110" rx="22" fill="#fff"/><rect x="-55" y="-55" width="110" height="55" rx="22" fill="#fff" opacity=".35"/><circle cx="-28.6" cy="-28.6" r="9.9" fill="#2a1b4a"/><circle cx="0" cy="0" r="9.9" fill="#2a1b4a"/><circle cx="28.6" cy="28.6" r="9.9" fill="#2a1b4a"/></g><g transform="translate(820 520) rotate(-8)" filter="url(#sh)"><rect x="-40" y="-40" width="80" height="80" rx="16" fill="#ff5fa2"/><rect x="-40" y="-40" width="80" height="40" rx="16" fill="#fff" opacity=".35"/><circle cx="0" cy="0" r="7.199999999999999" fill="#2a1b4a"/></g><g transform="translate(420 470) scale(1.4)"><ellipse cx="0" cy="62" rx="40" ry="10" fill="#000" opacity=".3"/><rect x="-30" y="-10" width="60" height="70" rx="20" fill="#ffc83d"/><circle cx="0" cy="-30" r="34" fill="#ffe0b8"/><path d="M-36 -36 Q0 -90 36 -36 L36 -28 L-36 -28Z" fill="#9aa3c7"/><rect x="-6" y="-80" width="12" height="20" rx="4" fill="#ff3d5a"/><circle cx="-11.4" cy="-26" r="6.6" fill="#fff"/><circle cx="-11.4" cy="-25.1" r="3.3" fill="#2a1b4a"/><circle cx="-12.6" cy="-26.9" r="1.2" fill="#fff"/><circle cx="11.4" cy="-26" r="6.6" fill="#fff"/><circle cx="11.4" cy="-25.1" r="3.3" fill="#2a1b4a"/><circle cx="10.200000000000001" cy="-26.9" r="1.2" fill="#fff"/><rect x="34" y="-20" width="10" height="70" rx="4" fill="#d6dbff" transform="rotate(30 34 -20)"/></g><g transform="translate(760 500) scale(1.1)"><ellipse cx="0" cy="40" rx="44" ry="10" fill="#000" opacity=".3"/><path d="M-44 36 Q-48 -40 0 -44 Q48 -40 44 36Z" fill="#8bdc4a"/><path d="M-44 36 Q-48 -40 0 -44 Q48 -40 44 36Z" fill="url(#shine)"/><circle cx="-15" cy="-6" r="11" fill="#2a1b4a"/><circle cx="15" cy="-6" r="11" fill="#2a1b4a"/><path d="M-14 16 L14 16" stroke="#2a1b4a" stroke-width="5" stroke-linecap="round"/></g><text x="600" y="130" text-anchor="middle" font-family="'Fredoka','Baloo 2','Arial Rounded MT Bold','Trebuchet MS',Verdana,sans-serif" font-weight="800" font-size="96" fill="#ffc83d" stroke="#2a1b4a" stroke-width="11.52" paint-order="stroke" stroke-linejoin="round" letter-spacing="1">Dungeon Dice Dash</text></svg>
